<svg version="1.0" xmlns="http://www.w3.org/2000/svg" width="100" height="100" fill="#38BDF8" xml:space="preserve"><path d="M53.333 72.292V55.795c11.494-2.963 20-13.366 20-25.795V10C63.291 10 54.548 15.561 50 23.77 45.452 15.561 36.712 10 26.667 10v20c0 12.429 8.509 22.832 20 25.795v16.497L20 45.625v3.334c0 7.363 2.988 14.029 7.813 18.854L50 90l22.188-22.188C77.012 62.988 80 56.322 80 48.959v-3.334L53.333 72.292zm13.334-54.479V30c0 8.691-5.573 16.107-13.334 18.861V36.667c0-8.691 5.573-16.106 13.334-18.854zM33.333 30V17.813c7.761 2.748 13.334 10.163 13.334 18.854v12.194C38.906 46.107 33.333 38.691 33.333 30z"/></svg>