<svg width="1189" height="680" viewBox="0 0 1189 680" fill="none" xmlns="http://www.w3.org/2000/svg">
<path d="M65.6017 543.262L65.2227 642.12L188.882 642.6L189.261 543.737L65.6017 543.262Z" fill="#DADDDF"/>
<path d="M69.8359 549.487L69.5039 635.91L184.473 636.35L184.805 549.928L69.8359 549.487Z" fill="#B2B6BB"/>
<g opacity="0.3">
<path opacity="0.3" d="M65.6017 543.262L65.2227 642.12L188.882 642.6L189.261 543.737L65.6017 543.262Z" fill="black"/>
</g>
<path d="M69.4883 635.88L109.858 582.32L134.598 616.02L151.538 598.11L184.468 636.32L69.4883 635.88Z" fill="#B2B6BB"/>
<path d="M145.319 575.871C145.313 577.665 144.775 579.416 143.773 580.903C142.772 582.39 141.351 583.547 139.692 584.226C138.032 584.905 136.208 585.077 134.451 584.719C132.694 584.361 131.083 583.49 129.821 582.216C128.559 580.941 127.704 579.321 127.364 577.561C127.024 575.8 127.213 573.978 127.909 572.326C128.605 570.673 129.775 569.264 131.273 568.277C132.77 567.29 134.526 566.77 136.319 566.781C138.717 566.797 141.01 567.763 142.697 569.467C144.384 571.171 145.327 573.474 145.319 575.871Z" fill="#B2B6BB"/>
<path d="M47.4298 532.981L47.0508 631.84L170.71 632.31L171.089 533.455L47.4298 532.981Z" fill="#DADDDF"/>
<path d="M51.6679 539.217L51.3359 625.64L166.305 626.08L166.637 539.659L51.6679 539.217Z" fill="#B2B6BB"/>
<path opacity="0.2" d="M47.6085 533.233L47.2305 631.58L170.36 632.05L170.737 533.706L47.6085 533.233Z" fill="black"/>
<path d="M51.3281 625.6L91.6881 572.039L116.438 605.74L133.378 587.839L166.308 626.04L51.3281 625.6Z" fill="#B2B6BB"/>
<path d="M127.151 565.592C127.145 567.383 126.608 569.131 125.607 570.617C124.607 572.102 123.189 573.257 121.532 573.936C119.875 574.615 118.053 574.787 116.298 574.43C114.543 574.074 112.934 573.204 111.673 571.933C110.413 570.661 109.558 569.044 109.216 567.286C108.875 565.528 109.063 563.708 109.757 562.057C110.45 560.406 111.618 558.998 113.112 558.011C114.607 557.024 116.36 556.502 118.151 556.512C119.339 556.512 120.516 556.747 121.613 557.204C122.711 557.662 123.706 558.332 124.543 559.176C125.38 560.02 126.041 561.022 126.489 562.123C126.936 563.224 127.161 564.403 127.151 565.592Z" fill="#B2B6BB"/>
<path d="M31.2589 524.488L30.8789 623.35L154.538 623.82L154.918 524.963L31.2589 524.488Z" fill="#DADDDF"/>
<path d="M35.5039 530.725L35.1719 617.14L150.141 617.59L150.473 531.167L35.5039 530.725Z" fill="#B2B6BB"/>
<path opacity="0.1" d="M30.9104 524.087L30.5273 623.75L154.736 624.22L155.119 524.564L30.9104 524.087Z" fill="black"/>
<path d="M35.1602 617.11L75.5201 563.551L100.27 597.25L117.21 579.351L150.13 617.55L35.1602 617.11Z" fill="#B2B6BB"/>
<path d="M110.998 557.1C110.992 558.89 110.455 560.639 109.455 562.125C108.455 563.61 107.036 564.765 105.379 565.444C103.722 566.123 101.901 566.295 100.146 565.938C98.3911 565.582 96.7821 564.712 95.5211 563.44C94.2601 562.169 93.4051 560.551 93.0641 558.793C92.7231 557.035 92.9111 555.216 93.6051 553.565C94.2981 551.914 95.4661 550.506 96.9601 549.518C98.4541 548.531 100.208 548.01 101.998 548.02C104.394 548.036 106.686 549 108.373 550.701C110.06 552.403 111.004 554.704 110.998 557.1Z" fill="#B2B6BB"/>
<path d="M13.1612 535.16L12.7812 634.02L136.44 634.49L136.82 535.635L13.1612 535.16Z" fill="#DADDDF"/>
<path d="M17.3945 541.385L17.0625 627.8L132.033 628.25L132.365 541.827L17.3945 541.385Z" fill="#B2B6BB"/>
<path d="M17.0508 627.78L57.4108 574.219L82.1608 607.92L99.1008 590.02L132.031 628.22L17.0508 627.78Z" fill="#F4F4F4"/>
<path d="M92.8821 567.77C92.8761 569.563 92.3381 571.314 91.3361 572.801C90.3341 574.289 88.9141 575.445 87.2541 576.124C85.5951 576.804 83.7711 576.975 82.0141 576.617C80.2571 576.26 78.6451 575.388 77.3841 574.114C76.1221 572.84 75.2671 571.22 74.9261 569.459C74.5861 567.699 74.7761 565.877 75.4721 564.224C76.1671 562.571 77.3381 561.162 78.8351 560.175C80.3321 559.189 82.0891 558.668 83.8821 558.68C86.2791 558.696 88.5731 559.661 90.2601 561.365C91.9471 563.069 92.8901 565.372 92.8821 567.77Z" fill="#F4F4F4"/>
<path d="M208.292 571.372L136.902 571.559L137.152 667.02L208.542 666.83L208.292 571.372Z" fill="#0A101F"/>
<path opacity="0.2" d="M208.292 571.372L136.902 571.559L137.152 667.02L208.542 666.83L208.292 571.372Z" fill="black"/>
<path d="M0.171875 571.919L0.421875 667.37L143.202 667L143.002 571.539L0.171875 571.919ZM86.8019 594.28L56.4419 594.36C55.5789 594.36 54.7249 594.19 53.9279 593.86C53.1309 593.53 52.4059 593.04 51.7959 592.43C51.1859 591.82 50.7019 591.1 50.3719 590.3C50.0419 589.51 49.8719 588.652 49.8719 587.789C49.8719 586.926 50.0419 586.072 50.3719 585.275C50.7019 584.478 51.1859 583.753 51.7959 583.143C52.4059 582.533 53.1309 582.049 53.9279 581.719C54.7249 581.389 55.5789 581.219 56.4419 581.219L86.7919 581.139C88.5339 581.139 90.2049 581.831 91.4379 583.063C92.6699 584.296 93.3619 585.967 93.3619 587.709C93.3619 589.45 92.6699 591.12 91.4379 592.35C90.2049 593.59 88.5339 594.28 86.7919 594.28H86.8019Z" fill="#0A101F"/>
<path d="M1159.11 667.589L1120.11 630.53L1097.17 649.38L1067.12 618.689L1019.26 666.839L1114.61 667.189L1159.11 667.589Z" fill="#B2B6BB"/>
<path opacity="0.1" d="M1156.89 668.7L1117.89 631.63L1094.96 650.49L1064.9 619.8L1017.04 667.95L1112.39 668.3L1156.89 668.7Z" fill="black"/>
<path d="M1064.72 349.059H522.48C497.74 349.059 477.69 367.059 477.69 389.209V419.569H477.64V621C477.64 636.47 469.64 651.07 455.92 660.48L446.68 666.84H1021.07C1045.15 666.84 1064.67 649.34 1064.67 627.75V536.749V394.899C1064.67 379.419 1072.67 364.829 1086.39 355.409L1095.63 349.059H1064.72Z" fill="#DADDDF"/>
<path d="M1064.72 349.059H522.48C497.74 349.059 477.69 367.059 477.69 389.209V419.569H477.64V621C477.64 636.47 469.64 651.07 455.92 660.48L446.68 666.84H1021.07C1045.15 666.84 1064.67 649.34 1064.67 627.75V536.749V394.899C1064.67 379.419 1072.67 364.829 1086.39 355.409L1095.63 349.059H1064.72Z" fill="#DADDDF"/>
<path d="M1029.29 429.928H842.111C841.961 429.928 841.821 429.871 841.721 429.768C841.611 429.665 841.551 429.525 841.551 429.378C841.551 429.305 841.571 429.233 841.591 429.165C841.621 429.098 841.661 429.037 841.721 428.986C841.771 428.934 841.831 428.894 841.901 428.867C841.971 428.84 842.041 428.827 842.111 428.828H1029.29C1029.36 428.827 1029.44 428.84 1029.5 428.867C1029.57 428.894 1029.63 428.934 1029.69 428.986C1029.74 429.037 1029.78 429.098 1029.81 429.165C1029.84 429.233 1029.85 429.305 1029.85 429.378C1029.85 429.525 1029.79 429.665 1029.68 429.768C1029.58 429.871 1029.44 429.928 1029.29 429.928Z" fill="#3F4249"/>
<path d="M828 429.928H734.679C734.533 429.928 734.393 429.87 734.29 429.767C734.187 429.664 734.129 429.524 734.129 429.378C734.129 429.232 734.187 429.092 734.29 428.989C734.393 428.886 734.533 428.828 734.679 428.828H828C828.07 428.827 828.14 428.84 828.21 428.867C828.28 428.894 828.34 428.934 828.39 428.986C828.45 429.037 828.49 429.098 828.52 429.165C828.54 429.233 828.56 429.305 828.56 429.378C828.56 429.525 828.5 429.665 828.39 429.768C828.29 429.871 828.15 429.928 828 429.928Z" fill="#3F4249"/>
<path d="M920.75 376.209H733.562C733.416 376.209 733.276 376.151 733.173 376.048C733.07 375.945 733.012 375.805 733.012 375.659C733.012 375.513 733.07 375.374 733.173 375.271C733.276 375.167 733.416 375.109 733.562 375.109H920.75C920.9 375.109 921.04 375.167 921.14 375.271C921.24 375.374 921.3 375.513 921.3 375.659C921.3 375.805 921.24 375.945 921.14 376.048C921.04 376.151 920.9 376.209 920.75 376.209Z" fill="#3F4249"/>
<path d="M1028.17 376.209H934.9C934.76 376.209 934.62 376.151 934.51 376.048C934.41 375.945 934.35 375.805 934.35 375.659C934.35 375.513 934.41 375.374 934.51 375.271C934.62 375.167 934.76 375.109 934.9 375.109H1028.17C1028.32 375.109 1028.46 375.167 1028.56 375.271C1028.66 375.374 1028.72 375.513 1028.72 375.659C1028.72 375.805 1028.66 375.945 1028.56 376.048C1028.46 376.151 1028.32 376.209 1028.17 376.209Z" fill="#3F4249"/>
<path d="M1027.61 403.069H735.241C735.096 403.069 734.956 403.011 734.852 402.908C734.749 402.805 734.691 402.665 734.691 402.519C734.691 402.373 734.749 402.233 734.852 402.13C734.956 402.027 735.096 401.969 735.241 401.969H1027.61C1027.76 401.969 1027.9 402.027 1028 402.13C1028.1 402.233 1028.16 402.373 1028.16 402.519C1028.16 402.665 1028.1 402.805 1028 402.908C1027.9 403.011 1027.76 403.069 1027.61 403.069Z" fill="#3F4249"/>
<path d="M1028.17 456.791H735.802C735.667 456.773 735.544 456.706 735.455 456.604C735.366 456.502 735.316 456.371 735.316 456.236C735.316 456.1 735.366 455.969 735.455 455.867C735.544 455.765 735.667 455.699 735.802 455.681H1028.17C1028.25 455.67 1028.33 455.677 1028.41 455.7C1028.48 455.723 1028.55 455.762 1028.62 455.814C1028.68 455.867 1028.72 455.932 1028.76 456.004C1028.79 456.077 1028.81 456.156 1028.81 456.236C1028.81 456.316 1028.79 456.395 1028.76 456.467C1028.72 456.54 1028.68 456.605 1028.62 456.657C1028.55 456.71 1028.48 456.749 1028.41 456.772C1028.33 456.795 1028.25 456.801 1028.17 456.791Z" fill="#3F4249"/>
<path d="M1027.06 485.592H839.88C839.8 485.602 839.72 485.596 839.64 485.573C839.57 485.55 839.5 485.511 839.44 485.458C839.38 485.406 839.33 485.341 839.3 485.268C839.26 485.195 839.25 485.116 839.25 485.037C839.25 484.957 839.26 484.878 839.3 484.805C839.33 484.732 839.38 484.668 839.44 484.615C839.5 484.562 839.57 484.523 839.64 484.5C839.72 484.477 839.8 484.471 839.88 484.482H1027.06C1027.14 484.471 1027.22 484.477 1027.3 484.5C1027.37 484.523 1027.44 484.562 1027.5 484.615C1027.56 484.668 1027.61 484.732 1027.65 484.805C1027.68 484.878 1027.7 484.957 1027.7 485.037C1027.7 485.116 1027.68 485.195 1027.65 485.268C1027.61 485.341 1027.56 485.406 1027.5 485.458C1027.44 485.511 1027.37 485.55 1027.3 485.573C1027.22 485.596 1027.14 485.602 1027.06 485.592Z" fill="#3F4249"/>
<path d="M825.73 485.591H732.45C732.316 485.572 732.193 485.506 732.103 485.404C732.014 485.302 731.965 485.171 731.965 485.035C731.965 484.9 732.014 484.769 732.103 484.667C732.193 484.565 732.316 484.499 732.45 484.48H825.73C825.86 484.499 825.99 484.565 826.08 484.667C826.17 484.769 826.22 484.9 826.22 485.035C826.22 485.171 826.17 485.302 826.08 485.404C825.99 485.506 825.86 485.572 825.73 485.591Z" fill="#3F4249"/>
<path d="M1028.18 566.17H840.999C840.919 566.18 840.839 566.174 840.769 566.151C840.689 566.128 840.619 566.089 840.559 566.036C840.499 565.984 840.449 565.919 840.419 565.846C840.379 565.773 840.369 565.695 840.369 565.615C840.369 565.535 840.379 565.456 840.419 565.383C840.449 565.311 840.499 565.246 840.559 565.193C840.619 565.141 840.689 565.101 840.769 565.078C840.839 565.055 840.919 565.049 840.999 565.06H1028.18C1028.26 565.049 1028.34 565.055 1028.42 565.078C1028.49 565.101 1028.57 565.141 1028.63 565.193C1028.69 565.246 1028.73 565.311 1028.77 565.383C1028.8 565.456 1028.82 565.535 1028.82 565.615C1028.82 565.695 1028.8 565.773 1028.77 565.846C1028.73 565.919 1028.69 565.984 1028.63 566.036C1028.57 566.089 1028.49 566.128 1028.42 566.151C1028.34 566.174 1028.26 566.18 1028.18 566.17Z" fill="#3F4249"/>
<path d="M826.85 566.169H733.571C733.437 566.151 733.314 566.084 733.224 565.982C733.135 565.88 733.086 565.749 733.086 565.614C733.086 565.478 733.135 565.347 733.224 565.245C733.314 565.143 733.437 565.077 733.571 565.059H826.85C826.99 565.077 827.11 565.143 827.2 565.245C827.29 565.347 827.34 565.478 827.34 565.614C827.34 565.749 827.29 565.88 827.2 565.982C827.11 566.084 826.99 566.151 826.85 566.169Z" fill="#3F4249"/>
<path d="M919.64 512.45H732.45C732.316 512.432 732.193 512.365 732.103 512.263C732.014 512.161 731.965 512.03 731.965 511.895C731.965 511.759 732.014 511.628 732.103 511.526C732.193 511.424 732.316 511.358 732.45 511.34H919.64C919.77 511.358 919.9 511.424 919.99 511.526C920.08 511.628 920.13 511.759 920.13 511.895C920.13 512.03 920.08 512.161 919.99 512.263C919.9 512.365 919.77 512.432 919.64 512.45Z" fill="#3F4249"/>
<path d="M1027.06 512.451H933.791C933.661 512.433 933.531 512.367 933.441 512.265C933.351 512.162 933.301 512.032 933.301 511.896C933.301 511.76 933.351 511.629 933.441 511.527C933.531 511.425 933.661 511.359 933.791 511.341H1027.06C1027.14 511.33 1027.22 511.337 1027.3 511.36C1027.37 511.383 1027.44 511.422 1027.5 511.474C1027.56 511.527 1027.61 511.592 1027.64 511.664C1027.68 511.737 1027.69 511.816 1027.69 511.896C1027.69 511.976 1027.68 512.055 1027.64 512.127C1027.61 512.2 1027.56 512.265 1027.5 512.317C1027.44 512.37 1027.37 512.409 1027.3 512.432C1027.22 512.455 1027.14 512.462 1027.06 512.451Z" fill="#3F4249"/>
<path d="M1026.5 539.31H734.13C733.996 539.292 733.872 539.226 733.783 539.124C733.694 539.022 733.645 538.891 733.645 538.755C733.645 538.62 733.694 538.489 733.783 538.387C733.872 538.285 733.996 538.218 734.13 538.2H1026.5C1026.58 538.19 1026.66 538.196 1026.74 538.219C1026.81 538.242 1026.88 538.281 1026.94 538.334C1027 538.386 1027.05 538.451 1027.08 538.524C1027.12 538.597 1027.13 538.675 1027.13 538.755C1027.13 538.835 1027.12 538.914 1027.08 538.987C1027.05 539.059 1027 539.124 1026.94 539.177C1026.88 539.229 1026.81 539.269 1026.74 539.292C1026.66 539.315 1026.58 539.321 1026.5 539.31Z" fill="#3F4249"/>
<path d="M1027.06 593H734.688C734.554 592.98 734.431 592.92 734.342 592.82C734.252 592.71 734.203 592.58 734.203 592.45C734.203 592.31 734.252 592.18 734.342 592.08C734.431 591.98 734.554 591.91 734.688 591.89H1027.06C1027.14 591.88 1027.22 591.89 1027.29 591.91C1027.37 591.93 1027.44 591.97 1027.5 592.03C1027.56 592.08 1027.61 592.14 1027.64 592.22C1027.68 592.29 1027.69 592.37 1027.69 592.45C1027.69 592.53 1027.68 592.61 1027.64 592.68C1027.61 592.75 1027.56 592.82 1027.5 592.87C1027.44 592.92 1027.37 592.96 1027.29 592.98C1027.22 593.01 1027.14 593.01 1027.06 593Z" fill="#3F4249"/>
<path d="M1092.67 349.059H1098.67C1106.1 349.059 1113.22 352.009 1118.47 357.26C1123.72 362.511 1126.67 369.633 1126.67 377.059V666.84H1064.67V377.059C1064.67 369.633 1067.62 362.511 1072.87 357.26C1078.12 352.009 1085.25 349.059 1092.67 349.059Z" fill="#B2B6BB"/>
<path d="M979.55 91.9883H186.289C178.242 91.9883 171.719 98.5113 171.719 106.558V644.59C171.719 652.64 178.242 659.16 186.289 659.16H979.55C987.6 659.16 994.12 652.64 994.12 644.59V106.558C994.12 98.5113 987.6 91.9883 979.55 91.9883Z" fill="#21252B"/>
<path d="M138.469 617.21H1029.47V649C1029.47 653.72 1027.59 658.25 1024.26 661.59C1020.92 664.93 1016.39 666.8 1011.67 666.8H156.269C151.548 666.8 147.02 664.93 143.682 661.59C140.344 658.25 138.469 653.72 138.469 649V617.17V617.21Z" fill="#21252B"/>
<path d="M970.89 114.52H194.941V593.49H970.89V114.52Z" fill="#61656D"/>
<path d="M994.11 619.25C994.11 619.53 809.999 619.75 582.929 619.75C355.859 619.75 171.719 619.53 171.719 619.25C171.719 618.97 355.789 618.75 582.929 618.75C810.07 618.75 994.11 619 994.11 619.25Z" fill="#3F4249"/>
<path d="M495.789 617.21H672.159L662.809 633.29H505.529L495.789 617.21Z" fill="#3F4249"/>
<path d="M907.39 0.0585938H334.178C309.448 0.0585938 289.398 19.6386 289.398 43.7886V593.79H876.4V49.9986C876.42 41.6356 878.4 33.3936 882.17 25.9296C885.94 18.4646 891.4 11.9826 898.12 6.9986L907.39 0.0585938Z" fill="#DADDDF"/>
<path d="M904.381 0.0585938H910.381C917.801 0.0585938 924.931 3.00861 930.181 8.25961C935.431 13.5106 938.381 20.6326 938.381 28.0586V92.1386H876.381V28.0586C876.381 20.6326 879.331 13.5106 884.581 8.25961C889.831 3.00861 896.951 0.0585938 904.381 0.0585938Z" fill="#B2B6BB"/>
<path opacity="0.1" d="M1092.67 349.059H1098.67C1106.1 349.059 1113.22 352.009 1118.47 357.26C1123.72 362.511 1126.67 369.633 1126.67 377.059V666.84H1064.67V377.059C1064.67 369.633 1067.62 362.511 1072.87 357.26C1078.12 352.009 1085.25 349.059 1092.67 349.059Z" fill="black"/>
<g opacity="0.1">
<path opacity="0.1" d="M904.381 1H910.381C917.801 1 924.931 3.94999 930.181 9.20099C935.431 14.452 938.381 21.574 938.381 29V93.1H876.381V29C876.381 21.574 879.331 14.452 884.581 9.20099C889.831 3.94999 896.951 1 904.381 1Z" fill="black"/>
</g>
<path d="M687.389 31.631H419.849C419.714 31.613 419.591 31.546 419.502 31.444C419.412 31.342 419.363 31.211 419.363 31.076C419.363 30.94 419.412 30.809 419.502 30.707C419.591 30.605 419.714 30.539 419.849 30.521H687.389C687.468 30.51 687.548 30.516 687.625 30.539C687.701 30.562 687.772 30.602 687.832 30.654C687.892 30.707 687.94 30.771 687.973 30.844C688.006 30.917 688.023 30.996 688.023 31.076C688.023 31.155 688.006 31.234 687.973 31.307C687.94 31.38 687.892 31.445 687.832 31.497C687.772 31.55 687.701 31.589 687.625 31.612C687.548 31.635 687.468 31.641 687.389 31.631Z" fill="#3F4249"/>
<path d="M840.93 31.631H707.618C707.484 31.613 707.361 31.546 707.271 31.444C707.182 31.342 707.133 31.211 707.133 31.076C707.133 30.94 707.182 30.809 707.271 30.707C707.361 30.605 707.484 30.539 707.618 30.521H840.93C841.01 30.51 841.09 30.516 841.16 30.539C841.24 30.562 841.31 30.602 841.37 30.654C841.43 30.707 841.48 30.771 841.51 30.844C841.55 30.917 841.56 30.996 841.56 31.076C841.56 31.155 841.55 31.234 841.51 31.307C841.48 31.38 841.43 31.445 841.37 31.497C841.31 31.55 841.24 31.589 841.16 31.612C841.09 31.635 841.01 31.641 840.93 31.631Z" fill="#3F4249"/>
<path d="M839.09 90.881H418.931C418.796 90.863 418.673 90.796 418.584 90.694C418.495 90.592 418.445 90.461 418.445 90.326C418.445 90.19 418.495 90.059 418.584 89.957C418.673 89.855 418.796 89.789 418.931 89.771H839.09C839.17 89.76 839.25 89.766 839.33 89.789C839.4 89.812 839.47 89.852 839.53 89.904C839.59 89.957 839.64 90.021 839.68 90.094C839.71 90.167 839.73 90.246 839.73 90.326C839.73 90.405 839.71 90.484 839.68 90.557C839.64 90.63 839.59 90.695 839.53 90.747C839.47 90.8 839.4 90.839 839.33 90.862C839.25 90.885 839.17 90.891 839.09 90.881Z" fill="#3F4249"/>
<path d="M840.89 332.342H325.889C325.809 332.352 325.729 332.346 325.653 332.323C325.576 332.3 325.505 332.261 325.445 332.208C325.385 332.156 325.337 332.091 325.304 332.018C325.271 331.945 325.254 331.866 325.254 331.787C325.254 331.707 325.271 331.628 325.304 331.555C325.337 331.482 325.385 331.418 325.445 331.365C325.505 331.312 325.576 331.273 325.653 331.25C325.729 331.227 325.809 331.221 325.889 331.232H840.89C840.97 331.221 841.05 331.227 841.12 331.25C841.2 331.273 841.27 331.312 841.33 331.365C841.39 331.418 841.44 331.482 841.47 331.555C841.51 331.628 841.52 331.707 841.52 331.787C841.52 331.866 841.51 331.945 841.47 332.018C841.44 332.091 841.39 332.156 841.33 332.208C841.27 332.261 841.2 332.3 841.12 332.323C841.05 332.346 840.97 332.352 840.89 332.342Z" fill="#3F4249"/>
<path d="M840.89 357.818H325.889C325.809 357.829 325.729 357.822 325.653 357.799C325.576 357.776 325.505 357.737 325.445 357.685C325.385 357.632 325.337 357.567 325.304 357.495C325.271 357.422 325.254 357.343 325.254 357.263C325.254 357.183 325.271 357.104 325.304 357.032C325.337 356.959 325.385 356.894 325.445 356.842C325.505 356.789 325.576 356.75 325.653 356.727C325.729 356.704 325.809 356.697 325.889 356.708H840.89C840.97 356.697 841.05 356.704 841.12 356.727C841.2 356.75 841.27 356.789 841.33 356.842C841.39 356.894 841.44 356.959 841.47 357.032C841.51 357.104 841.52 357.183 841.52 357.263C841.52 357.343 841.51 357.422 841.47 357.495C841.44 357.567 841.39 357.632 841.33 357.685C841.27 357.737 841.2 357.776 841.12 357.799C841.05 357.822 840.97 357.829 840.89 357.818Z" fill="#3F4249"/>
<path d="M843.11 560.508H328.11C327.976 560.49 327.853 560.424 327.763 560.322C327.674 560.22 327.625 560.089 327.625 559.953C327.625 559.818 327.674 559.687 327.763 559.585C327.853 559.483 327.976 559.417 328.11 559.398H843.11C843.24 559.417 843.37 559.483 843.46 559.585C843.55 559.687 843.6 559.818 843.6 559.953C843.6 560.089 843.55 560.22 843.46 560.322C843.37 560.424 843.24 560.49 843.11 560.508Z" fill="#3F4249"/>
<path d="M840.93 57.6508H573.39C573.244 57.6508 573.104 57.5928 573.001 57.4898C572.898 57.3868 572.84 57.2468 572.84 57.1008C572.84 56.9548 572.898 56.8148 573.001 56.7118C573.104 56.6088 573.244 56.5508 573.39 56.5508H840.93C841.08 56.5508 841.22 56.6088 841.32 56.7118C841.42 56.8148 841.48 56.9548 841.48 57.1008C841.48 57.2468 841.42 57.3868 841.32 57.4898C841.22 57.5928 841.08 57.6508 840.93 57.6508Z" fill="#3F4249"/>
<path d="M553.161 57.6508H419.851C419.705 57.6508 419.565 57.5928 419.462 57.4898C419.359 57.3868 419.301 57.2468 419.301 57.1008C419.301 56.9548 419.359 56.8148 419.462 56.7118C419.565 56.6088 419.705 56.5508 419.851 56.5508H553.161C553.307 56.5508 553.447 56.6088 553.55 56.7118C553.653 56.8148 553.711 56.9548 553.711 57.1008C553.711 57.2468 553.653 57.3868 553.55 57.4898C553.447 57.5928 553.307 57.6508 553.161 57.6508Z" fill="#3F4249"/>
<g opacity="0.1">
<path opacity="0.1" d="M651.821 130.452L644.301 269.752L849.68 284.712L841.32 130.012L651.821 130.452Z" fill="black"/>
</g>
<path d="M828.2 120.752L643.359 121.945L644.314 269.712L829.15 268.519L828.2 120.752Z" fill="#F5F5F5"/>
<path d="M821.89 130.093L650.039 131.203L650.873 260.37L822.72 259.261L821.89 130.093Z" fill="#0A101F"/>
<g opacity="0.2">
<path opacity="0.2" d="M821.89 130.089L650.039 131.199L650.873 260.367L822.72 259.257L821.89 130.089Z" fill="white"/>
</g>
<g opacity="0.2">
<path opacity="0.2" d="M822.7 259.301L762.162 179.391L725.302 229.871L699.912 203.171L650.852 260.401L822.7 259.301Z" fill="black"/>
</g>
<g opacity="0.2">
<path opacity="0.2" d="M709.141 169.902C709.159 172.577 709.97 175.188 711.471 177.403C712.973 179.618 715.097 181.338 717.576 182.346C720.055 183.353 722.778 183.603 725.399 183.063C728.02 182.524 730.422 181.219 732.301 179.315C734.181 177.41 735.453 174.99 735.958 172.363C736.463 169.735 736.177 167.016 735.136 164.551C734.096 162.085 732.348 159.984 730.113 158.512C727.878 157.04 725.257 156.264 722.581 156.282C720.804 156.292 719.046 156.653 717.409 157.343C715.771 158.034 714.285 159.04 713.037 160.305C711.789 161.57 710.802 163.069 710.134 164.715C709.465 166.362 709.128 168.124 709.141 169.902Z" fill="black"/>
</g>
<g opacity="0.1">
<path opacity="0.1" d="M514.459 394.061L521.979 533.361L316.609 548.321L324.969 393.621L514.459 394.061Z" fill="black"/>
</g>
<path d="M338.126 384.424L337.172 532.191L522.008 533.385L522.962 385.618L338.126 384.424Z" fill="#F5F5F5"/>
<path d="M344.436 393.766L343.602 522.934L515.448 524.043L516.282 394.876L344.436 393.766Z" fill="#0A101F"/>
<g opacity="0.2">
<path opacity="0.2" d="M344.436 393.766L343.602 522.934L515.448 524.043L516.282 394.876L344.436 393.766Z" fill="white"/>
</g>
<g opacity="0.2">
<path opacity="0.2" d="M343.578 522.91L404.118 443L440.978 493.48L466.368 466.78L515.428 524.01L343.578 522.91Z" fill="black"/>
</g>
<g opacity="0.2">
<path opacity="0.2" d="M457.15 433.511C457.132 436.186 456.321 438.796 454.82 441.011C453.319 443.226 451.195 444.946 448.717 445.954C446.238 446.962 443.516 447.212 440.896 446.674C438.275 446.135 435.873 444.831 433.993 442.927C432.113 441.024 430.839 438.605 430.334 435.978C429.828 433.351 430.113 430.633 431.152 428.167C432.19 425.701 433.937 423.599 436.17 422.126C438.404 420.653 441.024 419.875 443.7 419.891C445.477 419.901 447.235 420.262 448.873 420.952C450.512 421.643 451.998 422.649 453.247 423.914C454.496 425.179 455.484 426.677 456.153 428.324C456.823 429.971 457.161 431.733 457.15 433.511Z" fill="black"/>
</g>
<path d="M842.04 300.219H324.789V316.829H842.04V300.219Z" fill="#B2B6BB"/>
<path d="M617.198 120.789H325.898V137.399H617.198V120.789Z" fill="#B2B6BB"/>
<path d="M618.289 162.881H431.099C430.964 162.863 430.841 162.796 430.752 162.694C430.662 162.592 430.613 162.461 430.613 162.326C430.613 162.19 430.662 162.059 430.752 161.957C430.841 161.855 430.964 161.789 431.099 161.771H618.289C618.368 161.76 618.448 161.766 618.525 161.789C618.601 161.812 618.672 161.851 618.732 161.904C618.792 161.957 618.84 162.021 618.873 162.094C618.906 162.167 618.923 162.246 618.923 162.326C618.923 162.405 618.906 162.484 618.873 162.557C618.84 162.63 618.792 162.695 618.732 162.747C618.672 162.8 618.601 162.839 618.525 162.862C618.448 162.885 618.368 162.891 618.289 162.881Z" fill="#3F4249"/>
<path d="M417.001 162.881H323.681C323.546 162.863 323.423 162.796 323.334 162.694C323.245 162.592 323.195 162.461 323.195 162.326C323.195 162.19 323.245 162.059 323.334 161.957C323.423 161.855 323.546 161.789 323.681 161.771H417.001C417.08 161.76 417.16 161.766 417.237 161.789C417.313 161.812 417.384 161.851 417.444 161.904C417.504 161.957 417.552 162.021 417.585 162.094C417.618 162.167 417.635 162.246 417.635 162.326C417.635 162.405 417.618 162.484 417.585 162.557C417.552 162.63 417.504 162.695 417.444 162.747C417.384 162.8 417.313 162.839 417.237 162.862C417.16 162.885 417.08 162.891 417.001 162.881Z" fill="#3F4249"/>
<path d="M619.41 243.459H432.22C432.085 243.441 431.962 243.374 431.873 243.272C431.784 243.17 431.734 243.039 431.734 242.904C431.734 242.768 431.784 242.637 431.873 242.535C431.962 242.433 432.085 242.367 432.22 242.349H619.41C619.489 242.338 619.569 242.345 619.646 242.368C619.722 242.391 619.793 242.43 619.853 242.482C619.913 242.535 619.961 242.6 619.994 242.672C620.027 242.745 620.044 242.824 620.044 242.904C620.044 242.984 620.027 243.063 619.994 243.135C619.961 243.208 619.913 243.273 619.853 243.325C619.793 243.378 619.722 243.417 619.646 243.44C619.569 243.463 619.489 243.469 619.41 243.459Z" fill="#3F4249"/>
<path d="M418.072 243.459H324.802C324.667 243.441 324.544 243.374 324.455 243.272C324.366 243.17 324.316 243.039 324.316 242.904C324.316 242.768 324.366 242.637 324.455 242.535C324.544 242.433 324.667 242.367 324.802 242.349H418.072C418.151 242.338 418.231 242.345 418.308 242.368C418.384 242.391 418.455 242.43 418.515 242.482C418.575 242.535 418.623 242.6 418.656 242.672C418.689 242.745 418.706 242.824 418.706 242.904C418.706 242.984 418.689 243.063 418.656 243.135C418.623 243.208 418.575 243.273 418.515 243.325C418.455 243.378 418.384 243.417 418.308 243.44C418.231 243.463 418.151 243.469 418.072 243.459Z" fill="#3F4249"/>
<path d="M510.871 189.739H323.681C323.546 189.721 323.423 189.655 323.334 189.553C323.245 189.45 323.195 189.319 323.195 189.184C323.195 189.048 323.245 188.917 323.334 188.815C323.423 188.713 323.546 188.647 323.681 188.629H510.871C511.005 188.647 511.128 188.713 511.218 188.815C511.307 188.917 511.356 189.048 511.356 189.184C511.356 189.319 511.307 189.45 511.218 189.553C511.128 189.655 511.005 189.721 510.871 189.739Z" fill="#3F4249"/>
<path d="M618.291 189.74H525.001C524.867 189.722 524.743 189.656 524.654 189.554C524.565 189.452 524.516 189.321 524.516 189.185C524.516 189.049 524.565 188.918 524.654 188.816C524.743 188.714 524.867 188.648 525.001 188.63H618.271C618.35 188.619 618.431 188.626 618.507 188.649C618.584 188.672 618.654 188.711 618.714 188.763C618.774 188.816 618.823 188.881 618.856 188.954C618.889 189.026 618.906 189.105 618.906 189.185C618.906 189.265 618.889 189.344 618.856 189.417C618.823 189.489 618.774 189.554 618.714 189.607C618.654 189.659 618.584 189.698 618.507 189.721C618.431 189.744 618.35 189.751 618.271 189.74H618.291Z" fill="#3F4249"/>
<path d="M617.73 216.598H325.36C325.226 216.58 325.103 216.514 325.013 216.412C324.924 216.31 324.875 216.179 324.875 216.043C324.875 215.908 324.924 215.777 325.013 215.675C325.103 215.573 325.226 215.506 325.36 215.488H617.73C617.865 215.506 617.988 215.573 618.077 215.675C618.166 215.777 618.216 215.908 618.216 216.043C618.216 216.179 618.166 216.31 618.077 216.412C617.988 216.514 617.865 216.58 617.73 216.598Z" fill="#3F4249"/>
<path d="M618.291 270.311H325.921C325.849 270.312 325.776 270.299 325.709 270.272C325.642 270.245 325.581 270.204 325.529 270.153C325.478 270.101 325.437 270.04 325.41 269.973C325.383 269.906 325.37 269.834 325.371 269.761C325.371 269.615 325.429 269.475 325.532 269.372C325.635 269.269 325.775 269.211 325.921 269.211H618.291C618.438 269.211 618.579 269.269 618.684 269.371C618.788 269.474 618.849 269.614 618.851 269.761C618.851 269.834 618.837 269.906 618.808 269.974C618.78 270.041 618.739 270.102 618.687 270.153C618.634 270.205 618.573 270.245 618.505 270.272C618.437 270.299 618.364 270.312 618.291 270.311Z" fill="#3F4249"/>
<path d="M550.738 399.91H842.039V383.3H550.738V399.91Z" fill="#B2B6BB"/>
<path d="M736.832 425.381H549.642C549.507 425.363 549.384 425.296 549.295 425.194C549.205 425.092 549.156 424.961 549.156 424.826C549.156 424.69 549.205 424.559 549.295 424.457C549.384 424.355 549.507 424.289 549.642 424.271H736.832C736.911 424.26 736.991 424.266 737.068 424.289C737.144 424.312 737.215 424.351 737.275 424.404C737.335 424.457 737.383 424.521 737.416 424.594C737.449 424.667 737.466 424.746 737.466 424.826C737.466 424.905 737.449 424.984 737.416 425.057C737.383 425.13 737.335 425.195 737.275 425.247C737.215 425.3 737.144 425.339 737.068 425.362C736.991 425.385 736.911 425.391 736.832 425.381Z" fill="#3F4249"/>
<path d="M844.26 425.38H751.001C750.867 425.361 750.743 425.295 750.654 425.193C750.565 425.091 750.516 424.96 750.516 424.825C750.516 424.689 750.565 424.558 750.654 424.456C750.743 424.354 750.867 424.288 751.001 424.27H844.28C844.42 424.288 844.54 424.354 844.63 424.456C844.72 424.558 844.77 424.689 844.77 424.825C844.77 424.96 844.72 425.091 844.63 425.193C844.54 425.295 844.42 425.361 844.28 425.38H844.26Z" fill="#3F4249"/>
<path d="M735.711 506.002H548.521C548.386 505.984 548.263 505.917 548.174 505.815C548.084 505.713 548.035 505.582 548.035 505.447C548.035 505.311 548.084 505.18 548.174 505.078C548.263 504.976 548.386 504.91 548.521 504.892H735.711C735.79 504.881 735.87 504.887 735.947 504.91C736.023 504.933 736.094 504.973 736.154 505.025C736.214 505.078 736.262 505.143 736.295 505.215C736.328 505.288 736.345 505.367 736.345 505.447C736.345 505.527 736.328 505.605 736.295 505.678C736.262 505.751 736.214 505.816 736.154 505.868C736.094 505.921 736.023 505.96 735.947 505.983C735.87 506.006 735.79 506.012 735.711 506.002Z" fill="#3F4249"/>
<path d="M843.13 506.002H749.86C749.726 505.984 749.603 505.917 749.513 505.815C749.424 505.713 749.375 505.582 749.375 505.447C749.375 505.311 749.424 505.18 749.513 505.078C749.603 504.976 749.726 504.91 749.86 504.892H843.13C843.21 504.881 843.29 504.887 843.37 504.91C843.44 504.933 843.51 504.973 843.57 505.025C843.63 505.078 843.68 505.143 843.71 505.215C843.75 505.288 843.76 505.367 843.76 505.447C843.76 505.527 843.75 505.605 843.71 505.678C843.68 505.751 843.63 505.816 843.57 505.868C843.51 505.921 843.44 505.96 843.37 505.983C843.29 506.006 843.21 506.012 843.13 506.002Z" fill="#3F4249"/>
<path d="M844.26 452.24H657.068C656.989 452.251 656.909 452.244 656.832 452.221C656.756 452.198 656.685 452.159 656.625 452.107C656.565 452.054 656.517 451.989 656.484 451.917C656.451 451.844 656.434 451.765 656.434 451.685C656.434 451.605 656.451 451.526 656.484 451.454C656.517 451.381 656.565 451.316 656.625 451.263C656.685 451.211 656.756 451.172 656.832 451.149C656.909 451.126 656.989 451.119 657.068 451.13H844.26C844.39 451.148 844.52 451.214 844.61 451.316C844.69 451.418 844.74 451.549 844.74 451.685C844.74 451.821 844.69 451.952 844.61 452.054C844.52 452.156 844.39 452.222 844.26 452.24Z" fill="#3F4249"/>
<path d="M642.922 452.239H549.642C549.507 452.221 549.384 452.155 549.295 452.053C549.205 451.95 549.156 451.819 549.156 451.684C549.156 451.548 549.205 451.417 549.295 451.315C549.384 451.213 549.507 451.147 549.642 451.129H642.922C643.056 451.147 643.179 451.213 643.268 451.315C643.358 451.417 643.407 451.548 643.407 451.684C643.407 451.819 643.358 451.95 643.268 452.053C643.179 452.155 643.056 452.221 642.922 452.239Z" fill="#3F4249"/>
<path d="M842.57 479.099H550.2C550.066 479.081 549.943 479.015 549.853 478.913C549.764 478.811 549.715 478.68 549.715 478.544C549.715 478.409 549.764 478.278 549.853 478.176C549.943 478.074 550.066 478.007 550.2 477.989H842.57C842.65 477.979 842.73 477.985 842.81 478.008C842.88 478.031 842.95 478.07 843.01 478.123C843.07 478.175 843.12 478.24 843.15 478.313C843.19 478.386 843.2 478.465 843.2 478.544C843.2 478.624 843.19 478.703 843.15 478.776C843.12 478.849 843.07 478.913 843.01 478.966C842.95 479.018 842.88 479.058 842.81 479.081C842.73 479.104 842.65 479.11 842.57 479.099Z" fill="#3F4249"/>
<path d="M842 532.821H549.642C549.507 532.803 549.384 532.737 549.295 532.635C549.205 532.533 549.156 532.402 549.156 532.266C549.156 532.13 549.205 531.999 549.295 531.897C549.384 531.795 549.507 531.729 549.642 531.711H842C842.14 531.729 842.26 531.795 842.35 531.897C842.44 531.999 842.49 532.13 842.49 532.266C842.49 532.402 842.44 532.533 842.35 532.635C842.26 532.737 842.14 532.803 842 532.821Z" fill="#3F4249"/>
<path d="M334.93 30.2305H389.93L390.02 48.6605H387.38C386.52 42.0605 384.053 37.6005 379.98 35.2805C377.68 33.9945 374.257 33.2905 369.71 33.1705V81.3205C369.71 84.6805 370.3 86.9204 371.47 88.0204C372.64 89.1204 375.1 89.6705 378.81 89.6705V92.0005H346.27V89.6805C349.843 89.6805 352.216 89.1245 353.39 88.0105C354.563 86.8975 355.15 84.6704 355.15 81.3304V33.1705C350.69 33.2905 347.266 33.9945 344.88 35.2805C340.513 37.6605 338.046 42.1205 337.48 48.6605H334.84L334.93 30.2305Z" fill="#0F172A"/>
<path d="M1126.7 572.34H1188.7V639.59C1188.7 647.02 1185.75 654.14 1180.5 659.39C1175.25 664.64 1168.13 667.59 1160.7 667.59H1154.7C1147.27 667.59 1140.15 664.64 1134.9 659.39C1129.65 654.14 1126.7 647.02 1126.7 639.59V572.34Z" fill="#DADDDF"/>
<g opacity="0.15">
<path opacity="0.15" d="M875.55 400.249C875.46 399.449 875.069 398.713 874.459 398.189C873.839 397.669 873.05 397.411 872.24 397.469C872.06 397.53 871.9 397.641 871.78 397.789C871.67 397.943 871.609 398.128 871.599 398.319C871.659 398.503 871.77 398.664 871.92 398.779C872.07 398.896 872.259 398.959 872.449 398.959C872.859 398.963 873.259 399.108 873.569 399.369C873.879 399.624 874.09 399.977 874.16 400.369C874.18 400.574 874.159 400.782 874.099 400.979C874.039 401.177 873.94 401.36 873.81 401.519C873.68 401.676 873.509 401.808 873.329 401.909C873.149 402 872.95 402.058 872.74 402.079L869.329 402.409C869.149 402.465 868.99 402.577 868.87 402.729C868.76 402.885 868.699 403.069 868.689 403.259C868.749 403.441 868.87 403.601 869.02 403.719C869.17 403.833 869.36 403.896 869.55 403.899L872.949 403.569C873.359 403.559 873.76 403.46 874.12 403.279C874.48 403.098 874.8 402.838 875.04 402.519C875.29 402.199 875.47 401.827 875.55 401.429C875.64 401.034 875.64 400.624 875.55 400.229V400.249Z" fill="black"/>
</g>
</svg>
